# xmcd
#
# Track frame offsets:
#	150
#	10315
#	22362
#	27129
#	32783
#	37794
#	43849
#	54757
#	62928
#	71306
#
# Disc length: 1040 seconds
#
# Revision: 1
# Processed by: cddbd v1.5.2PL0 Copyright (c) Steve Scherf et al.
# Submitted via: audiograbber 1.83.01
#
DISCID=7d040e0a
DTITLE=фажеиягс лекас - фажеиягс лекас LIVE
DYEAR=1900
DGENRE=Ballad
TTITLE0=пыс тяекаиметаи емас амтяас
TTITLE1=амабы дуо поуяа
TTITLE2=лиа ацапг жтамеи
TTITLE3=йаты та веяиа соу
TTITLE4=опоиос токлгсеи
TTITLE5=дийаиыла соу
TTITLE6=бягйес то еуаисхгто сглеио лоу
TTITLE7=жуце
TTITLE8=мтяеполаи
TTITLE9=йаядиа лоу дем ле моиафеи
EXTD=
EXTT0=
EXTT1=
EXTT2=
EXTT3=
EXTT4=
EXTT5=
EXTT6=
EXTT7=
EXTT8=
EXTT9=
PLAYORDER=
